<?xml version="1.0" encoding="utf-8"?>
<!-- Generator: Adobe Illustrator 16.0.0, SVG Export Plug-In . SVG Version: 6.00 Build 0)  -->
<!DOCTYPE svg PUBLIC "-//W3C//DTD SVG 1.1//EN" "http://www.w3.org/Graphics/SVG/1.1/DTD/svg11.dtd">
<svg version="1.1" id="Layer_1" xmlns="http://www.w3.org/2000/svg" xmlns:xlink="http://www.w3.org/1999/xlink" x="0px" y="0px"
	 width="201.417px" height="153.292px" viewBox="0 0 201.417 153.292" enable-background="new 0 0 201.417 153.292"
	 xml:space="preserve">
<g>
	<path fill-rule="evenodd" clip-rule="evenodd" fill="none" stroke="#1D75BC" stroke-width="1.5" stroke-miterlimit="10" d="
		M58.264,138.209c-0.324,1.511,1.073,3.37,0.317,9.417c-0.756,6.045-18.858-0.074-22.854,2.948
		c-3.994,3.023-34.403,2.552-34.728-3.279c-0.212-3.825,6.188-6.533,20.223-9.664c14.035-3.131,30.225-20.877,30.225-20.877
		s0.197-3.721,0.822-4.791c-0.399,0.684,37.183-39.068,40.47-39.324c4.945-0.386,17.961,2.924,21.664,5.619
		c1.823,1.325,20.458,21.436,21.026,19.16c1.336-4.396-7.402-12.524-7.013-11.748c-0.712-1.423,3.982-4.185,0.572-6.011
		c-2.573-1.514-4.701,1.939-8.333-0.333c-3.635-2.271-1.423-4.573-8.084-7.147c-6.664-2.574-9.454,0.495-11.453-2.171
		s2.78-6.881,9.291-8.396c6.662,1.666,11.146,2.22,16.623,3.31c3.932,2.999,15.005,13.019,19.039,13.019
		c4.035,0,18.461-22.522,18.461-22.522s-0.159-3.87,0.933-4.383s2.699-1.053,2.577-1.945c-0.148-1.085-0.137-2.224-2.112-2.382
		c-1.975-0.158-4.829,0.198-5.583-0.557c-0.756-0.755,0.289-8.296-0.359-9.915c-1.62-0.972-4.436-1.374-4.544-2.777
		c-0.108-1.404,4.652-3.863,4.544-6.563c-0.108-1.619-0.361-14.75,0.396-16.154c0.755-1.403,5.074-9.592,17.275-9.592
		c12.199,0,16.912,11.68,16.912,11.68s1.876,4.085,1.66,9.915c-0.215,5.83-2.771,8.158-4.086,9.735
		c-2.342,2.67-2.043,7.133-2.043,7.133s0.833,6.554,2.451,6.679c2.806,0.216,7.942,11.269,7.942,16.775
		c0,5.022-3.089,49.724-4.815,51.452c-1.728,1.726-2.673,1.339-3.105,2.418c-1.198,2.997-0.492,2.729-1.467,5.17
		c-0.865,2.157-14.72,21.931-20.117,25.494c-5.399,3.563-12.577,4.474-23.481,4.474c-10.902,0-20.572-5.83-30.611-18.786
		C106.856,120.334,99.2,106.856,99.2,106.856s-0.472-1.631-2.092,0.095c-1.62,1.728-32.482,28.635-34.857,29.283
		C59.876,136.882,58.587,136.698,58.264,138.209z"/>
</g>
<g>
	<path fill-rule="evenodd" clip-rule="evenodd" fill="none" stroke="#1D75BC" stroke-width="0.75" stroke-miterlimit="10" d="
		M100.96,68.65c0,0-6.866-2.71-16.283-6.24c-0.925-5.802-4.027-39.406-4.344-42.714c-0.152-1.603-5.929-1.063-5.725,0.673
		c0.379,3.226,4.679,44.084,5.5,46.854c4.718,1.947,15.283,5.492,15.283,5.492"/>
	<path fill-rule="evenodd" clip-rule="evenodd" fill="none" stroke="#1D75BC" stroke-width="0.75" stroke-miterlimit="10" d="
		M117.667,75.426l-1.935,3.872"/>
</g>
</svg>
