<?xml version="1.0" encoding="utf-8"?>
<!-- Generator: Adobe Illustrator 16.0.0, SVG Export Plug-In . SVG Version: 6.00 Build 0)  -->
<!DOCTYPE svg PUBLIC "-//W3C//DTD SVG 1.1//EN" "http://www.w3.org/Graphics/SVG/1.1/DTD/svg11.dtd">
<svg version="1.1" id="Layer_1" xmlns="http://www.w3.org/2000/svg" xmlns:xlink="http://www.w3.org/1999/xlink" x="0px" y="0px"
	 width="627.167px" height="414.019px" viewBox="0.333 51.174 627.167 414.019"
	 enable-background="new 0.333 51.174 627.167 414.019" xml:space="preserve">
<g>
	<path fill-rule="evenodd" clip-rule="evenodd" fill="none" stroke="#54585E" stroke-width="1.5" stroke-miterlimit="10" d="
		M7.715,465.59c-8.052-28.591,11.383-47.745,11.383-47.745s21.657-23.596,39.704-34.698c18.324-13.324,35.736-22.931,35.736-22.931
		l7.021-3.995c0,0-0.039-5.613,2.382-5.268c2.815,0.402,10.873,13.317,10.873,13.317l14.43,26.101l5.934,10.773"/>
	<path fill-rule="evenodd" clip-rule="evenodd" fill="none" stroke="#54585E" stroke-width="1.5" stroke-miterlimit="10" d="
		M82.786,402.395c14.798,0.964,14.354,0.319,19.91,0.319c5.557,0,24.624-1.104,24.624-1.104s26.574-1.067,39.909-1.669"/>
	<path fill-rule="evenodd" clip-rule="evenodd" fill="none" stroke="#54585E" stroke-width="1.5" stroke-miterlimit="10" d="
		M155.628,467.254c4.289-1.504,8.063-2.705,11.633-4.123"/>
	<path fill-rule="evenodd" clip-rule="evenodd" fill="none" stroke="#54585E" stroke-width="1.5" stroke-miterlimit="10" d="
		M102.6,350.89c0.191-0.771,0.334-1.083,0.788-1.447c0.943-0.754,4.308-3.493,7.231-5.014c2.924-1.52,7.416-5.621,8.562-6.548
		c1.146-0.927,10.006-9.089,13.848-11.394c1.212-0.728,2.953-2.102,3.248-2.371c0.307-0.283,6.09-4.427,9.334-6.758
		c3.245-2.327,13.065-9.226,14.306-10.134c1.769-1.247,4.349-2.981,7.658-5.145"/>
	<path fill-rule="evenodd" clip-rule="evenodd" fill="none" stroke="#54585E" stroke-width="1.5" stroke-miterlimit="10" d="
		M467.472,398.161c16.427,3.65,70.078,5.201,84.985,3.376"/>
	<path fill-rule="evenodd" clip-rule="evenodd" fill="none" stroke="#54585E" stroke-width="1.5" stroke-miterlimit="10" d="
		M621.816,466.646c3.264-13.911,1.849-23.158,0.305-29.514c-1.545-6.353-13.995-21.904-13.995-21.904s-16.094-16.425-24.337-23.123
		c-8.243-6.697-53.793-35.493-54.695-36.146c-0.269-0.307-0.301-4.461-2.193-4.623c-5.418-1.325-31.645,49.625-31.645,49.625"/>
	<path fill-rule="evenodd" clip-rule="evenodd" fill="none" stroke="#54585E" stroke-width="1.5" stroke-miterlimit="10" d="
		M475.796,467.352c0,0-7.489-3.549-8.343-3.976"/>
	<path fill-rule="evenodd" clip-rule="evenodd" fill="none" stroke="#54585E" stroke-width="1.5" stroke-miterlimit="10" d="
		M416.113,277.343c10.306,2.665,13.789,5.069,15.889,6.398c2.101,1.327,13.077,8.678,13.077,8.678"/>
	<path fill-rule="evenodd" clip-rule="evenodd" fill="none" stroke="#54585E" stroke-width="1.5" stroke-miterlimit="10" d="
		M467.486,304.235c1.807,0.861,13.208,10.401,18.158,13.824c4.951,3.423,25.823,20.506,32.082,26.311
		c2.705,1.91,6.487,3.235,10.093,5.995c0.756,0.941,0.737,3.049,0.737,3.049"/>
	<path fill-rule="evenodd" clip-rule="evenodd" fill="none" stroke="#54585E" stroke-width="1.5" stroke-miterlimit="10" d="
		M184.972,292.8c0,0,17.55-10.928,32.308-10.525"/>
	<path fill-rule="evenodd" clip-rule="evenodd" fill="none" stroke="#54585E" stroke-width="1.5" stroke-miterlimit="10" d="
		M214.086,292.401c0.085-2.08,0.197-4.052,0.848-6.817c2.002-5.721,11.572-5.82,12.346-14.107c0.586-7.769-6.16-15.062-6.596-23.337
		c-0.435-8.276,5.267-12.925,9.73-18.697c4.464-5.772,4.251-25.4,4.251-25.4s-6.334,0.868-6.979,0.547
		c-4.426-1.274-5.211-5.284-5.211-5.284s-1.412-24.493,0.093-41.905c1.918-17.717,3.175-17.886,7.266-21.418
		c0.397-0.978,0.795-2.164,1.191-3.656c3.077-11.586,8.306-34.352,24.081-51.836c8.343-8.156,26.625-23.021,55.231-23.349
		c32.729-0.654,48.231,12.081,55.694,17.186c7.462,5.107,14.479,11.398,21.445,23.172c6.967,11.772,12.571,42.891,12.571,42.891
		s0.421,1.759,4.307,4.78c4.187,4.227,3.058,40.465,3.363,44.003c0.831,1.659,5.372,8.106,0.219,29.852
		c-0.743,3.799-2.832,4.127-3.436,8.556c-0.604,4.428,5.205,10.374,5.379,17.012c0.159,2.648-0.664,3.999-1.52,5.722
		c-0.472,1.519-1.349,2.37-1.486,5.189c-0.137,2.818,0.107,4.943,4.563,10.348c3.277,4.99,1.433,5.893,2.168,8.144
		c0.736,2.252,7.526,10.479,9.367,14.544c0.406,0.896,0.541,2.113,0.351,3.852"/>
	<path fill-rule="evenodd" clip-rule="evenodd" fill="none" stroke="#54585E" stroke-width="1.5" stroke-miterlimit="10" d="
		M281.786,292.423c0.305-5.092,0.795-9.521,0.795-10.817c0-2.313-1.705-14.003-2.104-15.214c-1.479-4.493-1.047-7.01-4.96-15.066
		c-3.913-8.055-10.778-10.825-15.458-24.174c-2.723-9.624-2.21-10.375-3.975-21.494c-0.829-6.492-1.175-5.571-1.797-14.041
		c-0.033-0.462-0.068-1.1-0.104-1.621c-0.69-10.049-0.866-9.365,0.285-15.963c1.151-6.597,9.966-9.705,14.799-17.761
		c4.833-8.055,8.508-5.955,12.498-11.018c3.99-5.063,5.121-12.303,8.88-18.747c3.759-6.446,12.311-11.271,12.311-11.271
		s11.337-5.843,15.48-4.846c4.142,0.997,6.315,10.318,9.538,13.157c3.222,2.838,11.358,6.635,16.115,10.853
		c4.756,4.22,10.47,16.416,13.155,24.011c2.685,7.596,8.628,10.658,12.004,15.952c3.375,5.293-0.921,33.25,0,29.108
		c0.92-4.142-3.476,23.914-6.084,29.438c-2.609,5.523-4.956,7.709-9.866,13.156s-18.211,21.819-21.049,24.504
		c-2.839,2.685-5.351,3.938-7.024,4.562c-0.509,0.186-6.795,1.589-9.407,1.787c-4.256,0.324-9.593,0.164-11.36-0.099
		c-3.517-0.523-10.48-2.639-12.733-3.645c-1.656-0.739-10.136-5.125-12.08-9.761"/>
	<path fill-rule="evenodd" clip-rule="evenodd" fill="none" stroke="#54585E" stroke-width="1.5" stroke-miterlimit="10" d="
		M354.875,292.446c-1.902-2.756-3.455-5.152-3.688-7.802c-0.53-6.003,6.005-9.664,6.624-17.788
		c0.618-8.124-2.082-23.466-2.082-23.466"/>
	<path fill-rule="evenodd" clip-rule="evenodd" fill="none" stroke="#54585E" stroke-width="1.5" stroke-miterlimit="10" d="
		M239.623,211.402c-3.336-1.906-3.929-7.372-4.945-7.367"/>
	<path fill-rule="evenodd" clip-rule="evenodd" fill="none" stroke="#54585E" stroke-width="1.5" stroke-miterlimit="10" d="
		M239.545,211.348c1.16,0.924,13.54,0.574,17.029-2.599c-0.513-2.91-1.37-8.747-1.835-12.225c-0.526-4.632-0.683-8.421-0.683-8.421
		s-1.184-28.646-6.551-34.291c-4.113-3.192-13.229-1.797-15.264,0.259c-2.274,2.398-3.16,5.175-3.16,5.175
		s1.253-10.778,2.637-16.581c1.385-5.803,8.474-23.45,11.311-28.199c8.64-15.629,14.214-23.493,21.225-30.058
		c7.012-6.563,20.711-13.983,32.846-16.424c12.135-2.439,24.888-1.911,33,0c8.113,1.913,17.837,3.983,30.166,13.509
		c12.328,9.527,21.74,24.648,28.863,40.409s9.761,27.114,9.761,27.114l2.479,18.127c0,0-3.425-3.57-5.594-4.702
		c-4.336-1.736-8.236-1.027-11.088,0c-3.278,1.878-6.926,14.228-7.953,24.269c-1.027,10.041-2.922,28.119-0.982,29.53
		c1.94,1.711,6.031,2.841,6.031,2.841s5.658,0.912,7.712-0.115c4.45-2.967,3.288-6.236,4.886-6.464
		c1.597-0.228,7.497,0.394,9.208-1.661c3.213-3.998,4.139-21.654,4.139-21.654"/>
	<path fill-rule="evenodd" clip-rule="evenodd" fill="none" stroke="#54585E" stroke-width="1.5" stroke-miterlimit="10" d="
		M330.205,272.305c-2.103-5.61,0.626-6.513-7.835-10.996c-7.213-3.264-8.058-4.641-12.359-4.98
		c-5.135-0.03-12.277,5.209-13.784,5.661c-8.475,4.619-5.964,4.014-7.368,9.688"/>
	<path fill-rule="evenodd" clip-rule="evenodd" fill="none" stroke="#54585E" stroke-width="1.5" stroke-miterlimit="10" d="
		M334.562,170.04c-3.661,0.953-6.735,4.297-6.343,5.187c0.391,0.889,4.856,2.702,10.858,3.03c6.001,0.328,10.02-2.088,11.157-3.287
		c0.385-0.406-2.204-3.73-6.437-4.837C340.154,169.252,338.224,169.085,334.562,170.04z"/>
	<path fill-rule="evenodd" clip-rule="evenodd" fill="none" stroke="#54585E" stroke-width="1.5" stroke-miterlimit="10" d="
		M307.543,214.831c0,0-5.225-0.314-5.67-0.705c-0.614-0.837,2.574-2.138,4.557-1.676c1.983,0.46,3.753,2.624,3.753,2.624
		s1.918,2.616,2.231,3.034c0.313,0.418,0.875,1.287,2.113,1.324c1.447,0.063,2.013-0.603,2.747-2.165
		c0.661-1.211,1.153-2.172,1.694-2.817c0.692-0.825,1.92-1.601,3.984-1.823c2.065-0.222,4.527,1.428,4.04,1.83
		c-0.487,0.4-3.166,1.051-5.744,1.223"/>
	<path fill-rule="evenodd" clip-rule="evenodd" fill="none" stroke="#54585E" stroke-width="1.5" stroke-miterlimit="10" d="
		M290.558,236.115c0,0,10.828,0.999,12.222,0.8c1.395-0.198,11.386,1.009,16.433,0.875c5.048-0.132,7.443-0.37,9.357-0.748
		c1.856-0.318,5.164-1.06,7.616-1.566c-1.563,3.518-13.476,6.874-15.223,7.273c-1.747,0.399-15.027-0.292-17.022-0.641
		c-4.471-1.255-8.698-4.232-13.315-5.873c-0.527-0.372,0.81-1.185,1.556-1.622c0.746-0.438,4.808-1.729,6.904-2.268
		c2.096-0.539,6.811-0.892,8.654-0.389c1.844,0.503,2.612,1.508,3.987,1.75c1.375,0.243,2.125-0.091,2.536-0.304
		c0.413-0.213,2.351-1.214,3.775-1.316c5.501-0.081,8.324,1.587,11.94,2.013c2.022,0.367,4.851,0.4,6.202,1.358"/>
	<path fill-rule="evenodd" clip-rule="evenodd" fill="none" stroke="#54585E" stroke-width="1.5" stroke-miterlimit="10" d="
		M350.292,160.559c-13.781-2.896-24.66-0.337-25.585-0.117c-0.927,0.221-3.719,0.879-4.365,3.631
		c-2.65,20.143,3.981,38.007,7.989,42.402c2.088,2.127,2.942,4.671,2.963,5.874c0.031,1.86-1.431,4.83-5.974,6.167"/>
	<path fill-rule="evenodd" clip-rule="evenodd" fill="none" stroke="#54585E" stroke-width="1.5" stroke-miterlimit="10" d="
		M272.126,160.054c0,0,12.551-2.206,17.424-1.892c4.872,0.315,16.241,1.502,17.643,5.567c1.402,4.065-2.967,27.196-2.967,27.196
		s-2.385,11.187-5.519,14.321c-2.002,1.898-2.62,6.54-1.951,8.17c0.67,1.63,4.194,4.394,6.296,4.929"/>
	<path fill-rule="evenodd" clip-rule="evenodd" fill="none" stroke="#54585E" stroke-width="1.5" stroke-miterlimit="10" d="
		M333.305,177.346c-0.385-1.298-0.022-3.49,1.164-4.82c1.187-1.33,2.449-2.018,5.147-1.838c2.709,0.361,3.739,1.924,4.307,3.107
		c0.569,1.185,0.303,3.413-0.05,4.068"/>
	<path fill-rule="evenodd" clip-rule="evenodd" fill="none" stroke="#54585E" stroke-width="1.5" stroke-miterlimit="10" d="
		M291.877,170.04c3.661,0.953,6.735,4.297,6.344,5.187c-0.392,0.889-4.855,2.702-10.857,3.03
		c-6.002,0.328-10.021-2.088-11.158-3.287c-0.384-0.406,2.205-3.73,6.437-4.837C286.286,169.252,288.216,169.085,291.877,170.04z"/>
	<path fill-rule="evenodd" clip-rule="evenodd" fill="none" stroke="#54585E" stroke-width="1.5" stroke-miterlimit="10" d="
		M293.134,177.346c0.385-1.298,0.022-3.49-1.164-4.82c-1.186-1.33-2.449-2.018-5.146-1.838c-2.71,0.361-3.74,1.924-4.308,3.107
		c-0.568,1.185-0.303,3.413,0.05,4.068"/>
	<path fill-rule="evenodd" clip-rule="evenodd" fill="none" stroke="#54585E" stroke-width="1.5" stroke-miterlimit="10" d="
		M167.376,467.154c0,0,0.1-158.458,0.1-163.138c0.396-5.076,4.484-11.185,11.735-11.185c8.042,0,272.515-0.15,276.008-0.15
		c5.075,0.066,11.771,5.679,11.835,10.886c0,8.436-0.051,163.587-0.051,163.587"/>
</g>
</svg>
