<?xml version="1.0" encoding="utf-8"?>
<!-- Generator: Adobe Illustrator 16.0.0, SVG Export Plug-In . SVG Version: 6.00 Build 0)  -->
<!DOCTYPE svg PUBLIC "-//W3C//DTD SVG 1.1//EN" "http://www.w3.org/Graphics/SVG/1.1/DTD/svg11.dtd">
<svg version="1.1" id="Layer_1" xmlns="http://www.w3.org/2000/svg" xmlns:xlink="http://www.w3.org/1999/xlink" x="0px" y="0px"
	 width="201.313px" height="136px" viewBox="0 0 201.313 136" enable-background="new 0 0 201.313 136" xml:space="preserve">
<g>
	<path fill-rule="evenodd" clip-rule="evenodd" fill="none" stroke="#1D75BC" stroke-width="1.5" stroke-miterlimit="10" d="
		M200.463,124.725l-28.769-34.129l0.034-86.273c0,0-0.368-3.25-3.02-3.25S32.427,1,32.427,1S28.42,1.725,28.42,4.465
		c0,2.74,0.041,86.85,0.041,86.85L1,124.104l0.6,7.096c0,0,0.226,3.979,3.977,3.979s187.223,0.027,190.327,0
		c3.103-0.027,3.988-3.891,3.988-3.891L200.463,124.725z"/>
</g>
<g>
	<path fill-rule="evenodd" clip-rule="evenodd" fill="none" stroke="#1D75BC" stroke-width="0.5" stroke-miterlimit="10" d="
		M33.907,90.238l133.496,0.029V9.235H33.935L33.907,90.238z"/>
	<path fill-rule="evenodd" clip-rule="evenodd" fill="none" stroke="#1D75BC" stroke-width="0.5" stroke-miterlimit="10" d="
		M48.125,28.122l8.213,7.637l-8.213,8.357"/>
	<path fill-rule="evenodd" clip-rule="evenodd" fill="none" stroke="#1D75BC" stroke-width="0.5" stroke-miterlimit="10" d="
		M54.635,44.391h12.253"/>
</g>
</svg>
