<?xml version="1.0" encoding="utf-8"?>
<!-- Generator: Adobe Illustrator 16.0.0, SVG Export Plug-In . SVG Version: 6.00 Build 0)  -->
<!DOCTYPE svg PUBLIC "-//W3C//DTD SVG 1.1//EN" "http://www.w3.org/Graphics/SVG/1.1/DTD/svg11.dtd">
<svg version="1.1" id="Layer_1" xmlns="http://www.w3.org/2000/svg" xmlns:xlink="http://www.w3.org/1999/xlink" x="0px" y="0px"
	 width="198.422px" height="145.925px" viewBox="0 0 198.422 145.925" enable-background="new 0 0 198.422 145.925"
	 xml:space="preserve">
<g>
	<path fill-rule="evenodd" clip-rule="evenodd" fill="none" stroke="#1C75BC" stroke-width="1.5" stroke-miterlimit="10" d="
		M165.809,55.157c6.883,0,8.918,0,16.971,0c8.052,0,10.292-0.076,12.721,2.353c2.609,2.609,2.098,5.879,2.098,20.048
		c0,7.602,0,21.654,0,40.321c0,18.667,0.63,20.512-2.114,23.255c-2.384,2.385-4.51,2.202-9.458,2.202s-7.428-0.045-10.759-0.045
		c-18.351,0-19.576,0.288-22.005-2.141c-2.609-2.609-2.189-4.719-2.189-16.379c0-10.797,0-21.598,0-32.396
		c0-8.041,0-16.083,0-24.124c0-9.114,0.704-9.199,2.938-11.434C155.688,55.144,158.299,55.157,165.809,55.157z"/>
	<path fill-rule="evenodd" clip-rule="evenodd" fill="none" stroke="#1C75BC" stroke-width="1.5" stroke-miterlimit="10" d="
		M75.103,117.104c6.88,0,25.299,0,40.298,0c0,16.198,0.989,16.242,9.402,24.655c0,0.978,0.005,0.987,0.005,1.719
		c-9.314,2.021-49.992,1.96-59.22-0.068c0-0.56,0-1.12,0-1.68C74.28,133.038,75.103,133.095,75.103,117.104z"/>
	<path fill-rule="evenodd" clip-rule="evenodd" fill="none" stroke="#1C75BC" stroke-width="1.5" stroke-miterlimit="10" d="
		M188.469,55.118c0-16.707,0-33.363,0-48.105c0-2.025,0.138-3.383-1.185-4.707s-3.108-1.257-5.279-1.257
		c-54.762,0-119.773,0-174.539,0c-2.181,0-3.994-0.113-5.187,1.079C1.086,3.321,0.972,4.953,0.972,6.961c0,30.317,0,68.74,0,99.047
		c0,1.99,0.567,3.434,1.468,4.335c0.902,0.902,2.81,1.524,4.974,1.524c44.736,0,96.315,0,143.562,0"/>
</g>
<g>
	<path fill-rule="evenodd" clip-rule="evenodd" fill="none" stroke="#1C75BC" stroke-width="0.5" stroke-miterlimit="10" d="
		M170.207,57.827c-0.945,0-0.912,1.414,0.022,1.414c0.934,0,7.926-0.035,8.594-0.035c0.916,0,0.905-1.378,0-1.378
		C178.133,57.827,171.151,57.827,170.207,57.827z"/>
	<path fill-rule="evenodd" clip-rule="evenodd" fill="none" stroke="#1C75BC" stroke-width="0.5" stroke-miterlimit="10" d="
		M153.665,63.686c0,24.122,0,48.25,0,72.373c13.784,0,27.571,0,41.355,0c0-24.122,0-48.251,0-72.373
		C181.236,63.686,167.448,63.686,153.665,63.686z"/>
	<path fill-rule="evenodd" clip-rule="evenodd" fill="none" stroke="#1C75BC" stroke-width="0.5" stroke-miterlimit="10" d="
		M170.896,137.89c-2.176,0-2.517,3.436,0.025,3.436s4.218,0,6.878,0s2.348-3.436-0.01-3.436
		C175.43,137.89,173.071,137.89,170.896,137.89z"/>
	<path fill-rule="evenodd" clip-rule="evenodd" fill="none" stroke="#1C75BC" stroke-width="0.5" stroke-miterlimit="10" d="
		M181.838,55.65c0-16.069,0-32.138,0-48.204c-58.202,0-116.422,0-174.624,0c0,33.019,0,66.047,0,99.065c47.86,0,95.732,0,143.596,0"
		/>
</g>
</svg>
