<?xml version="1.0" encoding="utf-8"?>
<!DOCTYPE svg PUBLIC "-//W3C//DTD SVG 1.1//EN" "http://www.w3.org/Graphics/SVG/1.1/DTD/svg11.dtd">
<svg version="1.1" id="Layer_1" xmlns="http://www.w3.org/2000/svg" xmlns:xlink="http://www.w3.org/1999/xlink" x="0px" y="0px"
	 width="900px" height="598.348px" viewBox="0 0 900 598.348" enable-background="new 0 0 900 598.348" xml:space="preserve">
<g>
	<path fill-rule="evenodd" clip-rule="evenodd" fill="none" stroke="#748FA8" stroke-width="2" stroke-miterlimit="10" d="
		M402.783,167.924c-0.631,0.197-7.243,2.484-9.267,6.44c0.739,1.128,4.87,4.583,13.545,5.31c7.929,0.435,14.201-1.125,16.453-4.62
		c0.113-0.407-1.873-2.765-1.873-2.765s-1.836-2.243-4.5-3.51C410.399,165.572,403.415,167.728,402.783,167.924z"/>
	<path fill-rule="evenodd" clip-rule="evenodd" fill="none" stroke="#748FA8" stroke-width="2" stroke-miterlimit="10" d="
		M479.302,169.114c-5.285,1.377-9.722,6.206-9.157,7.489c0.565,1.283,7.009,3.899,15.674,4.374
		c8.666,0.475,14.467-3.015,16.109-4.746c0.554-0.585-3.182-5.385-9.293-6.982C487.375,167.978,484.589,167.738,479.302,169.114z"/>
	<path fill-rule="evenodd" clip-rule="evenodd" fill="none" stroke="#748FA8" stroke-width="2" stroke-miterlimit="10" d="
		M440.294,233.781c0,0-7.542-0.455-8.187-1.019c-0.886-1.208,3.717-3.086,6.581-2.42c2.863,0.666,5.418,3.79,5.418,3.79
		s2.77,3.776,3.221,4.38c0.453,0.603,1.264,1.857,3.05,1.911c2.09,0.092,2.905-0.869,3.966-3.124
		c0.955-1.75,1.666-3.137,2.446-4.067c0.999-1.191,2.772-2.313,5.753-2.634c2.981-0.32,6.535,2.063,5.833,2.642
		c-0.702,0.579-4.571,1.518-8.294,1.766"/>
	<path fill-rule="evenodd" clip-rule="evenodd" fill="none" stroke="#748FA8" stroke-width="2" stroke-miterlimit="10" d="
		M415.772,264.508c0,0,15.632,1.443,17.646,1.156c2.013-0.289,16.438,1.455,23.724,1.263c7.287-0.191,10.745-0.536,13.508-1.08
		c2.682-0.46,7.457-1.53,10.996-2.26c-2.257,5.077-19.456,9.922-21.978,10.499c-2.521,0.577-21.693-0.421-24.575-0.925
		c-6.455-1.812-12.558-6.108-19.222-8.479c-0.761-0.537,1.169-1.71,2.246-2.342c1.077-0.63,6.942-2.496,9.967-3.273
		c3.026-0.778,9.833-1.287,12.494-0.561c2.661,0.726,3.77,2.176,5.756,2.527c1.985,0.351,3.066-0.131,3.662-0.439
		c0.595-0.308,3.394-1.752,5.448-1.901c7.942-0.116,12.02,2.292,17.238,2.907c2.921,0.531,7.005,0.578,8.954,1.961"/>
	<path fill-rule="evenodd" clip-rule="evenodd" fill="none" stroke="#748FA8" stroke-width="2" stroke-miterlimit="10" d="
		M502.01,155.428c-19.894-4.182-35.601-0.488-36.936-0.169c-1.34,0.319-5.37,1.27-6.304,5.243
		c-3.825,29.081,5.749,54.87,11.534,61.217c3.015,3.07,4.248,6.744,4.278,8.479c0.046,2.685-2.067,6.973-8.626,8.904"/>
	<path fill-rule="evenodd" clip-rule="evenodd" fill="none" stroke="#748FA8" stroke-width="2" stroke-miterlimit="10" d="
		M389.163,154.699c0,0,18.122-3.186,25.155-2.731c7.035,0.454,23.449,2.167,25.473,8.037c2.024,5.87-4.285,39.263-4.285,39.263
		s-3.443,16.15-7.968,20.674c-2.89,2.741-3.783,9.443-2.816,11.796c0.967,2.354,6.055,6.345,9.09,7.116"/>
	<path fill-rule="evenodd" clip-rule="evenodd" fill="none" stroke="#748FA8" stroke-width="2" stroke-miterlimit="10" d="
		M477.488,179.663c-0.555-1.874-0.033-5.038,1.679-6.958c1.713-1.92,3.536-2.914,7.432-2.656c3.911,0.522,5.398,2.778,6.218,4.488
		c0.819,1.71,0.437,4.925-0.073,5.874"/>
	<path fill-rule="evenodd" clip-rule="evenodd" fill="none" stroke="#748FA8" stroke-width="2" stroke-miterlimit="10" d="
		M401.426,178.389c-0.382-1.018-0.457-2.575-0.102-4.239c0.357-1.681,1.434-3.696,4.642-5.007c2.054-0.673,4.786-0.686,6.799,0.568
		c2.474,1.475,3.065,2.804,3.36,3.605c0.295,0.802,0.543,2.005,0.341,3.792c-0.232,1.363-0.76,2.135-0.608,1.889"/>
	<path fill-rule="evenodd" clip-rule="evenodd" fill="none" stroke="#748FA8" stroke-width="2" stroke-miterlimit="10" d="
		M305.37,345.77c0.124-3.003,0.285-5.852,1.224-9.841c2.892-8.262,16.707-8.405,17.823-20.368
		c0.848-11.216-8.893-21.745-9.521-33.692c-0.628-11.948,7.604-18.661,14.049-26.993c6.444-8.333,6.137-36.671,6.137-36.671
		s-9.144,1.254-10.075,0.79c-6.39-1.839-7.524-7.628-7.524-7.628s-2.039-35.361,0.135-60.499
		c2.769-25.579,4.583-25.821,10.489-30.921c0.573-1.412,1.148-3.124,1.72-5.276c4.441-16.729,11.99-49.594,34.766-74.837
		C376.638,28.06,403.031,6.598,444.33,6.125c47.252-0.945,69.632,17.44,80.405,24.812c10.773,7.372,20.904,16.456,30.96,33.453
		c10.058,16.997,18.15,61.923,18.15,61.923s0.606,2.538,6.217,6.9c6.047,6.103,4.414,58.42,4.856,63.527
		c1.198,2.396,7.754,11.703,0.315,43.097c-1.072,5.486-4.088,5.959-4.961,12.353c-0.871,6.393,7.515,14.977,7.767,24.56
		c0.229,3.823-0.958,5.773-2.194,8.261c-0.681,2.193-1.946,3.421-2.146,7.491c-0.198,4.069,0.153,7.137,6.59,14.94
		c4.729,7.204,2.066,8.505,3.128,11.757c1.063,3.251,10.864,15.126,13.524,20.997c0.585,1.293,0.779,3.049,0.508,5.56"/>
	<path fill-rule="evenodd" clip-rule="evenodd" fill="none" stroke="#748FA8" stroke-width="2" stroke-miterlimit="10" d="
		M403.109,345.801c0.44-7.352,1.149-13.746,1.149-15.616c0-3.339-2.462-20.217-3.038-21.966c-2.135-6.485-1.512-10.12-7.161-21.749
		s-15.56-15.629-22.316-34.902c-3.933-13.894-3.191-14.978-5.739-31.032c-1.196-9.372-1.695-8.041-2.594-20.271
		c-0.049-0.667-0.099-1.587-0.151-2.339c-0.997-14.509-1.25-13.521,0.412-23.045c1.661-9.525,14.388-14.013,21.366-25.643
		c6.978-11.629,12.283-8.597,18.043-15.907c5.759-7.31,7.393-17.763,12.82-27.066c5.427-9.303,17.774-16.271,17.774-16.271
		s16.367-8.437,22.347-6.997c5.981,1.44,9.116,14.896,13.77,18.995c4.652,4.097,16.399,9.577,23.266,15.669
		c6.867,6.091,15.115,23.699,18.992,34.664s12.458,15.389,17.331,23.031s-1.329,48.004,0,42.024
		c1.329-5.981-5.018,34.524-8.784,42.498c-3.765,7.975-7.155,11.13-14.243,18.995c-7.089,7.864-26.29,31.5-30.389,35.375
		c-4.098,3.876-7.724,5.685-10.141,6.587c-0.735,0.269-9.811,2.292-13.581,2.578c-6.143,0.469-13.849,0.236-16.4-0.144
		c-5.078-0.752-15.13-3.809-18.383-5.261c-2.391-1.067-14.632-7.397-17.438-14.092"/>
	<path fill-rule="evenodd" clip-rule="evenodd" fill="none" stroke="#748FA8" stroke-width="2" stroke-miterlimit="10" d="
		M508.628,345.835c-2.746-3.979-4.99-7.438-5.326-11.265c-0.765-8.669,8.67-13.952,9.563-25.681
		c0.892-11.728-3.006-33.876-3.006-33.876"/>
	<path fill-rule="evenodd" clip-rule="evenodd" fill="none" stroke="#748FA8" stroke-width="2" stroke-miterlimit="10" d="
		M342.238,228.831c-4.816-2.753-5.672-10.643-7.138-10.636"/>
	<path fill-rule="evenodd" clip-rule="evenodd" fill="none" stroke="#748FA8" stroke-width="2" stroke-miterlimit="10" d="
		M342.125,228.753c1.674,1.332,19.548,0.829,24.585-3.753c-0.74-4.2-1.977-12.628-2.649-17.649
		c-0.759-6.687-0.987-12.157-0.987-12.157s-1.708-41.356-9.458-49.506c-5.938-4.609-19.1-2.595-22.038,0.374
		c-3.283,3.462-4.562,7.471-4.562,7.471s1.809-15.562,3.808-23.939c1.999-8.378,12.234-33.855,16.328-40.71
		c12.474-22.563,20.521-33.918,30.644-43.395c10.122-9.476,29.9-20.188,47.418-23.71c17.521-3.522,35.933-2.761,47.644,0
		c11.711,2.76,25.751,5.749,43.55,19.502c17.798,13.754,31.388,35.584,41.669,58.338c10.283,22.754,14.092,39.145,14.092,39.145
		l3.578,26.171c0,0-4.942-5.155-8.073-6.789c-6.262-2.507-11.892-1.482-16.01,0c-4.734,2.712-10,20.541-11.481,35.037
		c-1.483,14.496-4.22,40.595-1.418,42.632c2.802,2.471,8.707,4.103,8.707,4.103s8.167,1.318,11.134-0.165
		c6.425-4.283,4.746-9.003,7.053-9.332c2.306-0.33,10.823,0.568,13.294-2.397c4.639-5.772,5.977-31.262,5.977-31.262"/>
	<path fill-rule="evenodd" clip-rule="evenodd" fill="none" stroke="#748FA8" stroke-width="2" stroke-miterlimit="10" d="
		M473.012,316.755c-3.036-8.098,0.903-9.401-11.312-15.875c-10.413-4.711-11.633-6.7-17.843-7.19
		c-7.413-0.044-17.724,7.52-19.9,8.172c-12.235,6.668-8.611,5.793-10.637,13.985"/>
	<path fill-rule="evenodd" clip-rule="evenodd" fill="none" stroke="#748FA8" stroke-width="2" stroke-miterlimit="10" d="
		M7.432,595.802c-11.624-41.276,16.435-68.929,16.435-68.929s31.265-34.063,57.32-50.094c26.457-19.237,51.593-33.104,51.593-33.104
		l10.137-5.77c0,0-0.057-8.102,3.439-7.603c4.064,0.581,15.696,19.226,15.696,19.226l20.833,37.681l8.567,15.555"/>
	<path fill-rule="evenodd" clip-rule="evenodd" fill="none" stroke="#748FA8" stroke-width="2" stroke-miterlimit="10" d="
		M115.812,504.566c21.363,1.392,20.722,0.464,28.744,0.464c8.023,0,35.549-1.595,35.549-1.595s38.365-1.542,57.616-2.407"/>
	<path fill-rule="evenodd" clip-rule="evenodd" fill="none" stroke="#748FA8" stroke-width="2" stroke-miterlimit="10" d="
		M220.975,598.207c6.192-2.172,11.64-3.908,16.794-5.957"/>
	<path fill-rule="evenodd" clip-rule="evenodd" fill="none" stroke="#748FA8" stroke-width="2" stroke-miterlimit="10" d="
		M144.417,430.21c0.275-1.114,0.482-1.564,1.138-2.089c1.362-1.091,6.218-5.043,10.439-7.237c4.222-2.196,10.706-8.116,12.36-9.456
		c1.655-1.339,14.446-13.119,19.993-16.446c1.749-1.051,4.264-3.035,4.688-3.425c0.444-0.407,8.792-6.391,13.477-9.753
		c4.684-3.363,18.862-13.322,20.652-14.634c2.555-1.799,6.28-4.303,11.056-7.426"/>
	<path fill-rule="evenodd" clip-rule="evenodd" fill="none" stroke="#748FA8" stroke-width="2" stroke-miterlimit="10" d="
		M671.185,498.455c23.717,5.272,101.171,7.51,122.692,4.874"/>
	<path fill-rule="evenodd" clip-rule="evenodd" fill="none" stroke="#748FA8" stroke-width="2" stroke-miterlimit="10" d="
		M894.013,597.329c4.712-20.083,2.671-33.434,0.438-42.607c-2.23-9.174-20.202-31.625-20.202-31.625s-23.235-23.714-35.135-33.383
		c-11.901-9.67-77.664-51.242-78.965-52.185c-0.387-0.442-0.437-6.438-3.165-6.675c-7.822-1.911-45.688,71.645-45.688,71.645"/>
	<path fill-rule="evenodd" clip-rule="evenodd" fill="none" stroke="#748FA8" stroke-width="2" stroke-miterlimit="10" d="
		M683.203,598.348c0,0-10.813-5.122-12.046-5.738"/>
	<path fill-rule="evenodd" clip-rule="evenodd" fill="none" stroke="#748FA8" stroke-width="2" stroke-miterlimit="10" d="
		M597.037,324.029c14.879,3.85,19.907,7.32,22.939,9.237c3.032,1.917,18.88,12.53,18.88,12.53"/>
	<path fill-rule="evenodd" clip-rule="evenodd" fill="none" stroke="#748FA8" stroke-width="2" stroke-miterlimit="10" d="
		M671.204,362.855c2.607,1.241,19.069,15.017,26.219,19.96c7.146,4.941,37.277,29.602,46.315,37.981
		c3.905,2.757,9.368,4.671,14.572,8.656c1.092,1.358,1.062,4.4,1.062,4.4"/>
	<path fill-rule="evenodd" clip-rule="evenodd" fill="none" stroke="#748FA8" stroke-width="2" stroke-miterlimit="10" d="
		M263.338,346.346c0,0,25.337-15.779,46.644-15.198"/>
	<path fill-rule="evenodd" clip-rule="evenodd" fill="none" stroke="#748FA8" stroke-width="2" stroke-miterlimit="10" d="
		M237.936,598.063c0,0,0.145-228.768,0.145-235.525c0.571-7.327,6.474-16.148,16.942-16.148c11.61,0,393.43-0.216,398.474-0.216
		c7.327,0.095,16.992,8.197,17.087,15.715c0,12.181-0.073,236.174-0.073,236.174"/>
</g>
</svg>
